<svg width="42" height="41" viewBox="0 0 42 41" fill="none" xmlns="http://www.w3.org/2000/svg">
<circle cx="20.9062" cy="20.4648" r="20.3203" fill="#00BF63"/>
<rect width="20.3203" height="20.3203" transform="translate(10.7461 10.3047)" fill="#00BF63"/>
<path d="M28.5253 20.0415C28.5283 21.159 28.2672 22.2614 27.7633 23.2589C27.166 24.4542 26.2476 25.4595 25.1111 26.1624C23.9746 26.8652 22.6649 27.2377 21.3286 27.2383C20.2111 27.2412 19.1087 26.9801 18.1112 26.4763L13.2852 28.0849L14.8938 23.2589C14.39 22.2614 14.1289 21.159 14.1318 20.0415C14.1324 18.7052 14.5049 17.3955 15.2077 16.259C15.9106 15.1225 16.9159 14.2041 18.1112 13.6068C19.1087 13.1029 20.2111 12.8418 21.3286 12.8448H21.7519C23.5167 12.9421 25.1835 13.687 26.4333 14.9368C27.6831 16.1865 28.428 17.8534 28.5253 19.6182V20.0415Z" stroke="white" stroke-width="1.69335" stroke-linecap="round" stroke-linejoin="round"/>
</svg>
