<svg width="23" height="23" viewBox="0 0 23 23" fill="none" xmlns="http://www.w3.org/2000/svg">
<path fill-rule="evenodd" clip-rule="evenodd" d="M2.56835 11.1347C2.56835 5.99106 6.73813 1.82128 11.8818 1.82128C17.0255 1.82128 21.1953 5.99106 21.1953 11.1347C21.1953 16.2784 17.0255 20.4482 11.8818 20.4482C6.73813 20.4482 2.56835 16.2784 2.56835 11.1347ZM11.8818 0.12793C5.80292 0.12793 0.875 5.05585 0.875 11.1347C0.875 17.2136 5.80292 22.1415 11.8818 22.1415C17.9607 22.1415 22.8886 17.2136 22.8886 11.1347C22.8886 5.05585 17.9607 0.12793 11.8818 0.12793ZM11.8108 14.8883L17.693 8.79219L16.2307 7.38121L10.9824 12.8203L7.42527 10.0555L6.17824 11.6598L10.4562 14.985L11.177 15.5452L11.8108 14.8883Z" fill="#00BF63"/>
</svg>
