<svg width="51" height="51" viewBox="0 0 51 51" fill="none" xmlns="http://www.w3.org/2000/svg">
<rect x="0.880859" y="10.9219" width="40.6405" height="40.6405" rx="10.1601" transform="rotate(-15 0.880859 10.9219)" fill="#00BF63"/>
<path d="M27.7496 17.6548C27.9906 18.3351 27.9534 19.0836 27.6449 19.7369C26.9348 21.2412 26.2749 22.7812 25.5092 24.2597C25.3326 24.5949 24.9128 24.7337 24.5718 24.5695L20.0927 22.4127C18.7389 21.7608 18.1638 20.1377 18.8052 18.7788C19.4529 17.4066 21.0942 16.8251 22.4613 17.4834L22.6241 17.5618L22.7012 17.3985C23.0117 16.7403 23.5722 16.2325 24.2594 15.989C24.9466 15.7455 25.7018 15.7871 26.3573 16.103C27.0084 16.4164 27.5085 16.9745 27.7496 17.6548Z" stroke="white" stroke-width="2" stroke-linejoin="round"/>
<path d="M35.5099 32.3718L38.303 26.5135C38.3851 26.3412 38.3955 26.1432 38.3317 25.9633L36.2271 20.0233C35.8951 19.0863 34.8663 18.5958 33.9293 18.9278C32.9923 19.2598 32.5018 20.2885 32.8338 21.2256L34.6372 26.3155" stroke="white" stroke-width="2" stroke-linecap="round" stroke-linejoin="round"/>
<path d="M33.9062 27.8479L34.5329 26.5334C34.5993 26.3941 34.6076 26.2343 34.5561 26.0891C34.4826 25.8816 34.2981 25.7334 34.0796 25.7063L33.4899 25.6334C32.4647 25.5065 31.4733 26.0499 31.0287 26.9823L30.3751 28.3532C30.1012 28.9278 30.0667 29.5876 30.2793 30.1875L31.5503 33.7749" stroke="white" stroke-width="2" stroke-linecap="round" stroke-linejoin="round"/>
<path d="M21.9367 37.1809L16.0784 34.3878C15.906 34.3057 15.7734 34.1584 15.7096 33.9784L13.605 28.0385C13.273 27.1014 13.7635 26.0727 14.7006 25.7407C15.6376 25.4087 16.6664 25.8991 16.9984 26.8362L18.8018 31.9261" stroke="white" stroke-width="2" stroke-linecap="round" stroke-linejoin="round"/>
<path d="M20.3343 32.6564L19.0198 32.0297C18.8806 31.9633 18.7735 31.8444 18.722 31.6992C18.6485 31.4916 18.6985 31.2604 18.8512 31.1017L19.2635 30.6738C19.9801 29.9298 21.0925 29.7278 22.0249 30.1723L23.3958 30.8259C23.9704 31.0999 24.4126 31.5908 24.6251 32.1908L25.8962 35.7782" stroke="white" stroke-width="2" stroke-linecap="round" stroke-linejoin="round"/>
</svg>
