<svg width="33" height="34" viewBox="0 0 33 34" fill="none" xmlns="http://www.w3.org/2000/svg">
<path d="M25.1065 0.580228H7.61786C6.6269 0.580245 5.64571 0.776152 4.73072 1.15668C3.81572 1.53721 2.98498 2.09486 2.28625 2.79757C1.59079 3.49876 1.04164 4.33119 0.670715 5.24648C0.299792 6.16177 0.114495 7.14165 0.125594 8.12918V25.5411C0.113101 26.5288 0.297759 27.5091 0.668761 28.4246C1.03976 29.3401 1.58965 30.1724 2.28625 30.8727C2.98389 31.5764 3.8142 32.1347 4.72909 32.5153C5.64399 32.896 6.62529 33.0913 7.6162 33.0901H15.5569V21.4766H12.5227C12.3346 21.4761 12.1543 21.4014 12.021 21.2687C11.8876 21.1361 11.8121 20.9561 11.8108 20.768V17.0402C11.8106 16.9444 11.8293 16.8495 11.866 16.761C11.9027 16.6725 11.9565 16.5921 12.0244 16.5245C12.0923 16.457 12.1729 16.4035 12.2616 16.3672C12.3502 16.331 12.4452 16.3127 12.541 16.3133H15.5569V12.6789C15.4724 11.8199 15.5772 10.9529 15.8641 10.1388C16.151 9.32479 16.613 8.58359 17.2174 7.96746C17.8227 7.34883 18.5555 6.86952 19.3648 6.56288C20.1742 6.25625 21.0406 6.12966 21.9039 6.19193H24.9948C25.0895 6.19213 25.1832 6.21118 25.2705 6.24797C25.3577 6.28476 25.4368 6.33855 25.503 6.40621C25.5693 6.47386 25.6214 6.55403 25.6564 6.64204C25.6914 6.73005 25.7084 6.82413 25.7067 6.91881V10.0698C25.7067 10.163 25.6882 10.2553 25.6524 10.3414C25.6166 10.4275 25.564 10.5057 25.4979 10.5714C25.4317 10.6371 25.3532 10.6891 25.2668 10.7243C25.1805 10.7595 25.088 10.7773 24.9948 10.7766H23.1226C21.0619 10.7766 20.6685 11.7469 20.6685 13.1624V16.295H25.1632C25.2645 16.2945 25.3648 16.3155 25.4573 16.3568C25.5499 16.3981 25.6326 16.4586 25.6999 16.5343C25.7673 16.61 25.8177 16.6992 25.8479 16.7959C25.8781 16.8926 25.8874 16.9946 25.8751 17.0952L25.4249 20.8247C25.4066 21 25.3235 21.1622 25.1918 21.2794C25.0601 21.3967 24.8893 21.4604 24.713 21.4582H20.6868V33.0717H25.1448C26.1355 33.0716 27.1164 32.8756 28.0311 32.4951C28.9458 32.1146 29.7763 31.557 30.4748 30.8544C31.1704 30.1529 31.7196 29.3202 32.0905 28.4047C32.4614 27.4891 32.6467 26.5089 32.6354 25.5211V8.12918C32.6482 7.13826 32.4623 6.15482 32.089 5.23685C31.7156 4.31888 31.1622 3.48495 30.4614 2.78423C29.7597 2.07994 28.9249 1.52236 28.0055 1.14396C27.0861 0.76557 26.1007 0.573935 25.1065 0.580228Z" fill="#1877F2"/>
</svg>
