<svg width="24" height="16" viewBox="0 0 24 16" fill="none" xmlns="http://www.w3.org/2000/svg">
<path d="M11.0348 10.6884C11.9981 10.047 12.7294 9.11275 13.1207 8.02364C13.5119 6.93453 13.5423 5.74842 13.2073 4.64071C12.8723 3.533 12.1897 2.5625 11.2605 1.87274C10.3312 1.18297 9.20471 0.810547 8.04745 0.810547C6.8902 0.810547 5.76366 1.18297 4.83444 1.87274C3.90521 2.5625 3.22263 3.533 2.88763 4.64071C2.55263 5.74842 2.583 6.93453 2.97424 8.02364C3.36549 9.11275 4.09684 10.047 5.06015 10.6884C3.31762 11.3306 1.82946 12.519 0.817727 14.0764C0.764554 14.1554 0.727619 14.2442 0.709071 14.3376C0.690523 14.4311 0.690731 14.5273 0.709682 14.6206C0.728634 14.7139 0.765951 14.8026 0.819465 14.8814C0.872979 14.9602 0.941623 15.0276 1.02141 15.0796C1.10119 15.1316 1.19052 15.1673 1.2842 15.1845C1.37789 15.2017 1.47406 15.2001 1.56713 15.1799C1.6602 15.1596 1.7483 15.121 1.82633 15.0664C1.90436 15.0117 1.97074 14.9421 2.02163 14.8616C2.67425 13.8579 3.56727 13.033 4.61959 12.462C5.67191 11.891 6.8502 11.592 8.04745 11.592C9.24471 11.592 10.423 11.891 11.4753 12.462C12.5276 13.033 13.4207 13.8579 14.0733 14.8616C14.1787 15.0183 14.3415 15.1272 14.5266 15.1648C14.7117 15.2023 14.9041 15.1656 15.0623 15.0624C15.2204 14.9592 15.3317 14.7979 15.3719 14.6134C15.4121 14.4289 15.3781 14.236 15.2772 14.0764C14.2654 12.519 12.7773 11.3306 11.0348 10.6884ZM4.09433 6.20336C4.09433 5.4215 4.32617 4.65721 4.76055 4.00712C5.19492 3.35703 5.81232 2.85035 6.53466 2.55115C7.257 2.25195 8.05184 2.17366 8.81867 2.32619C9.5855 2.47872 10.2899 2.85522 10.8427 3.40808C11.3956 3.96093 11.7721 4.66531 11.9246 5.43214C12.0772 6.19897 11.9989 6.99382 11.6997 7.71616C11.4005 8.43849 10.8938 9.05589 10.2437 9.49026C9.5936 9.92464 8.82931 10.1565 8.04745 10.1565C6.99938 10.1553 5.99458 9.73842 5.25348 8.99733C4.51239 8.25623 4.09552 7.25143 4.09433 6.20336ZM22.9741 15.0709C22.8144 15.175 22.62 15.2115 22.4335 15.1722C22.2469 15.133 22.0837 15.0212 21.9795 14.8616C21.3277 13.8573 20.4348 13.0321 19.3822 12.4613C18.3297 11.8906 17.151 11.5924 15.9537 11.594C15.7631 11.594 15.5803 11.5183 15.4455 11.3835C15.3107 11.2487 15.235 11.0659 15.235 10.8752C15.235 10.6846 15.3107 10.5018 15.4455 10.367C15.5803 10.2322 15.7631 10.1565 15.9537 10.1565C16.5359 10.1559 17.1107 10.0268 17.6372 9.77834C18.1637 9.52988 18.6288 9.16819 18.9992 8.71914C19.3697 8.27009 19.6365 7.74475 19.7804 7.18066C19.9243 6.61657 19.9419 6.02765 19.8318 5.45599C19.7217 4.88433 19.4868 4.34403 19.1437 3.87371C18.8006 3.40338 18.3579 3.01463 17.8472 2.73524C17.3364 2.45585 16.7703 2.29271 16.1892 2.25748C15.6081 2.22225 15.0264 2.3158 14.4857 2.53144C14.3975 2.56956 14.3026 2.58961 14.2065 2.59043C14.1105 2.59124 14.0152 2.57279 13.9264 2.53617C13.8376 2.49955 13.7571 2.44551 13.6895 2.37723C13.622 2.30895 13.5688 2.22782 13.5331 2.13864C13.4974 2.04946 13.48 1.95403 13.4818 1.85799C13.4837 1.76196 13.5047 1.66726 13.5438 1.57951C13.5828 1.49175 13.6391 1.41271 13.7092 1.34706C13.7793 1.2814 13.8619 1.23047 13.952 1.19727C15.1895 0.70371 16.566 0.685949 17.8159 1.14741C19.0658 1.60887 20.1005 2.51685 20.7205 3.69619C21.3404 4.87554 21.5016 6.24268 21.173 7.53387C20.8444 8.82506 20.0493 9.94882 18.941 10.6884C20.6835 11.3306 22.1717 12.519 23.1834 14.0764C23.2875 14.236 23.324 14.4305 23.2847 14.617C23.2455 14.8035 23.1337 14.9668 22.9741 15.0709Z" fill="#00BF63"/>
</svg>
