<svg width="21" height="20" viewBox="0 0 21 20" fill="none" xmlns="http://www.w3.org/2000/svg">
<path d="M20.0299 18.4696L15.3358 13.7765C16.6963 12.1431 17.3748 10.048 17.23 7.92715C17.0852 5.80629 16.1283 3.82289 14.5584 2.38956C12.9885 0.956234 10.9264 0.183327 8.80115 0.231627C6.6759 0.279927 4.65108 1.14571 3.14791 2.64888C1.64474 4.15205 0.77895 6.17687 0.73065 8.30212C0.68235 10.4274 1.45526 12.4894 2.88859 14.0593C4.32191 15.6293 6.30531 16.5861 8.42618 16.7309C10.547 16.8757 12.6421 16.1973 14.2755 14.8368L18.9686 19.5308C19.0383 19.6005 19.121 19.6558 19.2121 19.6935C19.3031 19.7312 19.4007 19.7506 19.4992 19.7506C19.5978 19.7506 19.6954 19.7312 19.7864 19.6935C19.8775 19.6558 19.9602 19.6005 20.0299 19.5308C20.0995 19.4612 20.1548 19.3784 20.1925 19.2874C20.2302 19.1963 20.2497 19.0988 20.2497 19.0002C20.2497 18.9017 20.2302 18.8041 20.1925 18.713C20.1548 18.622 20.0995 18.5393 20.0299 18.4696ZM2.24924 8.50021C2.24924 7.16519 2.64512 5.86015 3.38682 4.75011C4.12852 3.64008 5.18272 2.77492 6.41612 2.26403C7.64952 1.75314 9.00672 1.61946 10.3161 1.87991C11.6255 2.14036 12.8282 2.78324 13.7722 3.72724C14.7162 4.67125 15.3591 5.87398 15.6195 7.18335C15.88 8.49273 15.7463 9.84993 15.2354 11.0833C14.7245 12.3167 13.8594 13.3709 12.7493 14.1126C11.6393 14.8543 10.3343 15.2502 8.99924 15.2502C7.20963 15.2482 5.4939 14.5364 4.22846 13.271C2.96302 12.0056 2.25122 10.2898 2.24924 8.50021Z" fill="white"/>
</svg>
