<svg width="33" height="33" viewBox="0 0 33 33" fill="none" xmlns="http://www.w3.org/2000/svg">
<path d="M25.0155 0.0703125H7.74453C3.53638 0.0703125 0.125 3.48169 0.125 7.68984V24.9608C0.125 29.1689 3.53638 32.5803 7.74453 32.5803H25.0155C29.2236 32.5803 32.635 29.1689 32.635 24.9608V7.68984C32.635 3.48169 29.2236 0.0703125 25.0155 0.0703125Z" fill="url(#paint0_radial_2232_2209)"/>
<path d="M25.0155 0.0703125H7.74453C3.53638 0.0703125 0.125 3.48169 0.125 7.68984V24.9608C0.125 29.1689 3.53638 32.5803 7.74453 32.5803H25.0155C29.2236 32.5803 32.635 29.1689 32.635 24.9608V7.68984C32.635 3.48169 29.2236 0.0703125 25.0155 0.0703125Z" fill="url(#paint1_radial_2232_2209)"/>
<path d="M16.382 3.62598C12.9331 3.62598 12.5002 3.64109 11.1457 3.70268C9.79377 3.76465 8.87092 3.97863 8.06351 4.29269C7.22815 4.61702 6.51966 5.05096 5.81384 5.75703C5.10738 6.46298 4.67345 7.17147 4.3481 8.00644C4.03316 8.81412 3.81892 9.73735 3.75809 11.0887C3.69751 12.4433 3.68164 12.8763 3.68164 16.3253C3.68164 19.7743 3.69688 20.2058 3.75834 21.5603C3.82057 22.9123 4.03455 23.8351 4.34835 24.6425C4.67294 25.4779 5.10687 26.1864 5.81295 26.8922C6.51865 27.5987 7.22714 28.0336 8.06185 28.358C8.86991 28.672 9.79289 28.886 11.1446 28.948C12.4992 29.0096 12.9318 29.0247 16.3805 29.0247C19.8297 29.0247 20.2612 29.0096 21.6157 28.948C22.9677 28.886 23.8916 28.672 24.6996 28.358C25.5346 28.0336 26.2421 27.5987 26.9476 26.8922C27.6541 26.1864 28.0879 25.4779 28.4134 24.6429C28.7255 23.8351 28.9399 22.912 29.0034 21.5606C29.0642 20.2061 29.0801 19.7743 29.0801 16.3253C29.0801 12.8763 29.0642 12.4436 29.0034 11.0889C28.9399 9.73697 28.7255 8.81424 28.4134 8.00683C28.0879 7.17147 27.6541 6.46298 26.9476 5.75703C26.2413 5.0507 25.5348 4.61677 24.6988 4.29281C23.8893 3.97863 22.9659 3.76453 21.614 3.70268C20.2593 3.64109 19.8281 3.62598 16.3781 3.62598H16.382ZM15.2428 5.9145C15.5809 5.91399 15.9582 5.9145 16.382 5.9145C19.7728 5.9145 20.1746 5.92669 21.5136 5.98752C22.7518 6.04416 23.4238 6.25103 23.8715 6.42488C24.4642 6.65499 24.8867 6.93019 25.3309 7.37479C25.7754 7.81926 26.0504 8.24252 26.2812 8.8352C26.455 9.28221 26.6621 9.95425 26.7185 11.1924C26.7794 12.5312 26.7926 12.9332 26.7926 16.3224C26.7926 19.7116 26.7794 20.1138 26.7185 21.4524C26.6619 22.6905 26.455 23.3626 26.2812 23.8097C26.0511 24.4024 25.7754 24.8244 25.3309 25.2686C24.8864 25.7131 24.4644 25.9882 23.8715 26.2184C23.4244 26.393 22.7518 26.5994 21.5136 26.656C20.1749 26.7168 19.7728 26.73 16.382 26.73C12.9911 26.73 12.5891 26.7168 11.2505 26.656C10.0123 26.5989 9.34028 26.392 8.89226 26.2181C8.29971 25.9879 7.87632 25.7128 7.43185 25.2684C6.98737 24.8239 6.71231 24.4016 6.48156 23.8087C6.30771 23.3616 6.10059 22.6895 6.0442 21.4514C5.98337 20.1126 5.97118 19.7106 5.97118 16.3192C5.97118 12.928 5.98337 12.528 6.0442 11.1892C6.10084 9.95108 6.30771 9.27903 6.48156 8.83139C6.7118 8.23871 6.98737 7.81545 7.43197 7.37098C7.87645 6.9265 8.29971 6.65131 8.89238 6.42069C9.34003 6.24608 10.0123 6.03972 11.2505 5.98282C12.422 5.92987 12.876 5.91399 15.2428 5.91133V5.9145ZM23.1608 8.02308C22.3195 8.02308 21.6369 8.70503 21.6369 9.54648C21.6369 10.3878 22.3195 11.0704 23.1608 11.0704C24.0022 11.0704 24.6848 10.3878 24.6848 9.54648C24.6848 8.70516 24.0022 8.02257 23.1608 8.02257V8.02308ZM16.382 9.80364C12.7805 9.80364 9.86045 12.7237 9.86045 16.3253C9.86045 19.9269 12.7805 22.8456 16.382 22.8456C19.9836 22.8456 22.9027 19.9269 22.9027 16.3253C22.9027 12.7238 19.9834 9.80364 16.3817 9.80364H16.382ZM16.382 12.0922C18.7198 12.0922 20.6152 13.9873 20.6152 16.3253C20.6152 18.6631 18.7198 20.5585 16.382 20.5585C14.0441 20.5585 12.149 18.6631 12.149 16.3253C12.149 13.9873 14.0441 12.0922 16.382 12.0922Z" fill="white"/>
<defs>
<radialGradient id="paint0_radial_2232_2209" cx="0" cy="0" r="1" gradientUnits="userSpaceOnUse" gradientTransform="translate(8.76047 35.0842) rotate(-90) scale(32.2198 29.967)">
<stop stop-color="#FFDD55"/>
<stop offset="0.1" stop-color="#FFDD55"/>
<stop offset="0.5" stop-color="#FF543E"/>
<stop offset="1" stop-color="#C837AB"/>
</radialGradient>
<radialGradient id="paint1_radial_2232_2209" cx="0" cy="0" r="1" gradientUnits="userSpaceOnUse" gradientTransform="translate(-5.32055 2.41218) rotate(78.681) scale(14.4024 59.3673)">
<stop stop-color="#3771C8"/>
<stop offset="0.128" stop-color="#3771C8"/>
<stop offset="1" stop-color="#6600FF" stop-opacity="0"/>
</radialGradient>
</defs>
</svg>
