<svg width="25" height="24" viewBox="0 0 25 24" fill="none" xmlns="http://www.w3.org/2000/svg">
<path d="M1.5 19V4H3.5V14H11.5V6H19.5C20.6 6 21.5417 6.39167 22.325 7.175C23.1083 7.95833 23.5 8.9 23.5 10V19H21.5V16H3.5V19H1.5ZM7.5 13C6.66667 13 5.95833 12.7083 5.375 12.125C4.79167 11.5417 4.5 10.8333 4.5 10C4.5 9.16667 4.79167 8.45833 5.375 7.875C5.95833 7.29167 6.66667 7 7.5 7C8.33333 7 9.04167 7.29167 9.625 7.875C10.2083 8.45833 10.5 9.16667 10.5 10C10.5 10.8333 10.2083 11.5417 9.625 12.125C9.04167 12.7083 8.33333 13 7.5 13ZM13.5 14H21.5V10C21.5 9.45 21.3043 8.97933 20.913 8.588C20.5217 8.19667 20.0507 8.00067 19.5 8H13.5V14ZM7.5 11C7.78333 11 8.021 10.904 8.213 10.712C8.405 10.52 8.50067 10.2827 8.5 10C8.5 9.71667 8.404 9.47933 8.212 9.288C8.02 9.09667 7.78267 9.00067 7.5 9C7.21667 9 6.97933 9.096 6.788 9.288C6.59667 9.48 6.50067 9.71733 6.5 10C6.5 10.2833 6.596 10.521 6.788 10.713C6.98 10.905 7.21733 11.0007 7.5 11Z" fill="#00BF63"/>
</svg>
