<svg width="25" height="24" viewBox="0 0 25 24" fill="none" xmlns="http://www.w3.org/2000/svg">
<path d="M6.5 7H14.5M5.5 11H6.5M14.5 11H15.5" stroke="#00BF63" stroke-width="1.5" stroke-linecap="round" stroke-linejoin="round"/>
<path d="M1.5 15V8.41C1.50021 8.13941 1.55532 7.87167 1.662 7.623L3.981 2.213C4.13504 1.85313 4.3913 1.54637 4.71802 1.33075C5.04473 1.11513 5.42755 1.00013 5.819 1H15.181C15.5723 1.00004 15.9551 1.1149 16.2818 1.33033C16.6085 1.54576 16.8648 1.85231 17.019 2.212L19.339 7.622C19.4456 7.87136 19.5004 8.1398 19.5 8.411V15M1.5 15V17.4C1.5 17.5591 1.56321 17.7117 1.67574 17.8243C1.78826 17.9368 1.94087 18 2.1 18H4.9C5.05913 18 5.21174 17.9368 5.32426 17.8243C5.43679 17.7117 5.5 17.5591 5.5 17.4V15M1.5 15H5.5M19.5 15V17.4C19.5 17.5591 19.4368 17.7117 19.3243 17.8243C19.2117 17.9368 19.0591 18 18.9 18H16.1C16.0212 18 15.9432 17.9845 15.8704 17.9543C15.7976 17.9242 15.7315 17.88 15.6757 17.8243C15.62 17.7685 15.5758 17.7024 15.5457 17.6296C15.5155 17.5568 15.5 17.4788 15.5 17.4V15M19.5 15H15.5M5.5 15H15.5" stroke="#00BF63" stroke-width="1.5"/>
</svg>
