<svg width="25" height="24" viewBox="0 0 25 24" fill="none" xmlns="http://www.w3.org/2000/svg">
<path d="M14.5 4.5C14.5 5.16304 14.2366 5.79893 13.7678 6.26777C13.2989 6.73661 12.663 7 12 7C11.337 7 10.7011 6.73661 10.2322 6.26777C9.76339 5.79893 9.5 5.16304 9.5 4.5C9.5 3.83696 9.76339 3.20107 10.2322 2.73223C10.7011 2.26339 11.337 2 12 2C12.663 2 13.2989 2.26339 13.7678 2.73223C14.2366 3.20107 14.5 3.83696 14.5 4.5Z" fill="#00BF63"/>
<path fill-rule="evenodd" clip-rule="evenodd" d="M19.499 7.25C19.698 7.25 19.8887 7.32902 20.0294 7.46967C20.17 7.61032 20.249 7.80109 20.249 8V22C20.249 22.1989 20.17 22.3897 20.0294 22.5303C19.8887 22.671 19.698 22.75 19.499 22.75C19.3001 22.75 19.1094 22.671 18.9687 22.5303C18.8281 22.3897 18.749 22.1989 18.749 22V12.101C18.264 12.506 17.879 12.821 17.442 12.98C16.833 13.2023 16.1651 13.2023 15.556 12.98C15.103 12.815 14.706 12.483 14.196 12.057L14.103 11.98L14.022 11.912C13.8715 11.7811 13.7146 11.6577 13.552 11.542C13.1782 11.2969 12.775 11.0997 12.352 10.955C12.2241 10.922 12.0954 10.8919 11.966 10.865C11.9356 10.8588 11.9049 10.8542 11.874 10.851C11.7921 10.8818 11.7197 10.9335 11.664 11.001C11.6584 11.0169 11.6544 11.0333 11.652 11.05C11.642 11.103 11.635 11.174 11.621 11.32L11.459 12.943C11.365 13.877 11.354 14.127 11.419 14.336C11.458 14.458 11.515 14.573 11.588 14.678C11.713 14.858 11.918 15.002 12.714 15.5L12.819 15.566C13.615 16.062 14.166 16.406 14.564 16.901C14.764 17.15 14.931 17.422 15.062 17.713C15.323 18.292 15.38 18.939 15.463 19.873L15.474 19.998L15.646 21.933C15.6634 22.1309 15.6016 22.3276 15.4741 22.48C15.3465 22.6323 15.1638 22.7278 14.9659 22.7456C14.768 22.7633 14.5712 22.7019 14.4186 22.5746C14.266 22.4474 14.1702 22.2648 14.152 22.067L13.98 20.131C13.882 19.024 13.838 18.648 13.695 18.329C13.6161 18.1546 13.5153 17.9909 13.395 17.842C13.176 17.569 12.861 17.361 11.919 16.772C11.8817 16.7486 11.8444 16.7253 11.807 16.702C11.177 16.309 10.681 16 10.357 15.537C10.1962 15.306 10.0717 15.0517 9.98805 14.783C9.81905 14.244 9.87805 13.663 9.95305 12.924L9.96605 12.794L10.128 11.172L10.133 11.124C10.155 10.894 10.18 10.639 10.303 10.372C10.438 10.075 10.676 9.842 10.897 9.686C11.117 9.53 11.417 9.384 11.743 9.356C11.927 9.34 12.099 9.364 12.248 9.392C12.392 9.42 12.564 9.462 12.755 9.51L12.781 9.516L12.799 9.521C12.8088 9.52348 12.8184 9.52614 12.828 9.529C12.836 9.532 12.87 9.543 12.91 9.561C13.4388 9.74802 13.9423 9.99994 14.409 10.311C14.614 10.453 14.751 10.567 14.97 10.75L14.982 10.76L15.064 10.828C15.712 11.368 15.896 11.508 16.07 11.571C16.347 11.671 16.65 11.671 16.928 11.571C17.102 11.507 17.286 11.368 17.935 10.828L18.749 10.148V8C18.749 7.80109 18.8281 7.61032 18.9687 7.46967C19.1094 7.32902 19.3001 7.25 19.499 7.25ZM12.328 9.547H12.33L12.337 9.544L12.328 9.547ZM9.21105 9.763C9.27371 9.9517 9.25887 10.1576 9.1698 10.3353C9.08073 10.5131 8.92471 10.6482 8.73605 10.711L7.06405 11.269C6.82685 11.3481 6.62053 11.4997 6.47427 11.7025C6.32801 11.9053 6.24922 12.149 6.24905 12.399C6.24905 12.484 6.29605 12.56 6.37105 12.598L8.83405 13.829C8.92295 13.8725 9.00235 13.9332 9.06768 14.0076C9.13302 14.0819 9.18298 14.1685 9.21471 14.2622C9.24643 14.356 9.25928 14.4551 9.25251 14.5539C9.24574 14.6526 9.2195 14.7491 9.17528 14.8376C9.13107 14.9262 9.06977 15.0051 8.9949 15.0699C8.92004 15.1346 8.8331 15.1839 8.73909 15.2149C8.64509 15.2459 8.54588 15.258 8.44718 15.2504C8.34849 15.2429 8.25226 15.2159 8.16405 15.171L5.69905 13.939C5.41314 13.796 5.17272 13.5761 5.00475 13.3041C4.83678 13.0321 4.74789 12.7187 4.74805 12.399C4.74805 11.241 5.49005 10.212 6.58805 9.846L8.26105 9.288C8.35455 9.25682 8.45327 9.24438 8.55158 9.25138C8.6499 9.25838 8.74586 9.28469 8.834 9.3288C8.92213 9.37292 9.00071 9.43397 9.06524 9.50848C9.12976 9.58298 9.17997 9.66947 9.21105 9.763ZM9.91405 16.876C10.0795 16.9863 10.1944 17.1579 10.2334 17.3529C10.2724 17.548 10.2324 17.7505 10.122 17.916L7.12205 22.416C7.06794 22.4991 6.99788 22.5707 6.91593 22.6266C6.83397 22.6824 6.74175 22.7215 6.6446 22.7415C6.54745 22.7615 6.4473 22.762 6.34995 22.743C6.2526 22.724 6.15997 22.6859 6.07745 22.6309C5.99492 22.5759 5.92413 22.505 5.86916 22.4225C5.8142 22.3399 5.77616 22.2473 5.75724 22.1499C5.73832 22.0525 5.73891 21.9524 5.75896 21.8553C5.77901 21.7581 5.81812 21.6659 5.87405 21.584L8.87405 17.084C8.98439 16.9185 9.15594 16.8036 9.35097 16.7646C9.54601 16.7256 9.74855 16.7657 9.91405 16.876Z" fill="#00BF63"/>
</svg>
