<svg width="25" height="24" viewBox="0 0 25 24" fill="none" xmlns="http://www.w3.org/2000/svg">
<g clip-path="url(#clip0_2068_88)">
<path d="M24.3469 5.43997C24.2959 5.11552 24.1474 4.81426 23.9211 4.57614C23.6949 4.33801 23.4017 4.17427 23.0803 4.10663L19.1669 3.24663C18.7473 3.15511 18.3129 3.15477 17.8931 3.24563C17.4733 3.33649 17.0779 3.51644 16.7336 3.7733L5.16694 12.2L1.92694 12.0666C1.66648 12.0573 1.40971 12.1303 1.19309 12.2752C0.97647 12.4201 0.811019 12.6296 0.720236 12.8739C0.629454 13.1182 0.617955 13.3849 0.687372 13.6361C0.75679 13.8873 0.903595 14.1103 1.10694 14.2733L4.44027 16.8933C4.84027 17.38 5.10694 17.2866 11.7269 13.68L12.3469 19.96C12.3573 20.1313 12.416 20.2961 12.5163 20.4354C12.6166 20.5747 12.7544 20.6826 12.9136 20.7466C13.0282 20.7919 13.1504 20.8145 13.2736 20.8133C13.5215 20.8057 13.7584 20.7086 13.9403 20.54L15.5336 19.0866C15.6923 18.9396 15.7997 18.7457 15.8403 18.5333L17.3003 10.6C19.6803 9.26663 21.9336 8.0133 23.5403 7.09997C23.8277 6.93828 24.059 6.69271 24.2031 6.39607C24.3473 6.09944 24.3974 5.76588 24.3469 5.43997ZM22.8803 5.93997C21.2136 6.88663 18.8803 8.2133 16.3736 9.58663L16.1003 9.73997L14.5469 18.1866L13.5669 19.08L12.8336 11.5466L11.9469 12C7.16694 14.6666 5.5736 15.44 5.02694 15.68L2.16027 13.4066L5.54694 13.5533L17.5469 4.84663C17.7356 4.70562 17.9518 4.606 18.1816 4.55431C18.4113 4.50261 18.6494 4.5 18.8803 4.54663L22.7803 5.38663C22.8404 5.39753 22.8954 5.42733 22.9374 5.47171C22.9794 5.51608 23.0061 5.57269 23.0136 5.6333C23.0273 5.69196 23.0218 5.75348 22.9977 5.80872C22.9737 5.86397 22.9325 5.91 22.8803 5.93997Z" fill="#00BF63"/>
<path d="M5.16575 8.36017L7.53908 9.02684L8.63242 8.2335L5.96575 7.46017L7.16575 6.72684L10.8124 6.62017L12.3458 5.50684L7.16575 5.66684C7.00244 5.658 6.84015 5.69742 6.69908 5.78017L4.94575 6.80017C4.8008 6.88604 4.6845 7.0129 4.61153 7.16476C4.53856 7.31662 4.51218 7.48668 4.53571 7.65351C4.55923 7.82034 4.63162 7.97647 4.74374 8.10223C4.85586 8.22798 5.0027 8.31773 5.16575 8.36017Z" fill="#00BF63"/>
</g>
<defs>
<clipPath id="clip0_2068_88">
<rect width="24" height="24" fill="white" transform="translate(0.5)"/>
</clipPath>
</defs>
</svg>
