<svg width="49" height="43" viewBox="0 0 49 43" fill="none" xmlns="http://www.w3.org/2000/svg">
<path d="M47.25 39.7502H44V17.0002C44 16.1382 43.6576 15.3116 43.0481 14.7021C42.4386 14.0926 41.612 13.7502 40.75 13.7502H27.75V4.00016C27.7504 3.41163 27.591 2.83405 27.2887 2.32905C26.9865 1.82405 26.5528 1.4106 26.034 1.13283C25.5151 0.855051 24.9306 0.723375 24.3427 0.751855C23.7549 0.780335 23.1858 0.967902 22.6963 1.29453L6.44625 12.1252C6.00047 12.4226 5.63515 12.8256 5.38282 13.2984C5.13049 13.7711 4.99898 14.299 5 14.8348V39.7502H1.75C1.31902 39.7502 0.905698 39.9214 0.600951 40.2261C0.296205 40.5309 0.125 40.9442 0.125 41.3752C0.125 41.8061 0.296205 42.2195 0.600951 42.5242C0.905698 42.829 1.31902 43.0002 1.75 43.0002H47.25C47.681 43.0002 48.0943 42.829 48.399 42.5242C48.7038 42.2195 48.875 41.8061 48.875 41.3752C48.875 40.9442 48.7038 40.5309 48.399 40.2261C48.0943 39.9214 47.681 39.7502 47.25 39.7502ZM40.75 17.0002V39.7502H27.75V17.0002H40.75ZM8.25 14.8348L24.5 4.00016V39.7502H8.25V14.8348ZM21.25 20.2502V23.5002C21.25 23.9311 21.0788 24.3445 20.774 24.6492C20.4693 24.954 20.056 25.1252 19.625 25.1252C19.194 25.1252 18.7807 24.954 18.476 24.6492C18.1712 24.3445 18 23.9311 18 23.5002V20.2502C18 19.8192 18.1712 19.4059 18.476 19.1011C18.7807 18.7964 19.194 18.6252 19.625 18.6252C20.056 18.6252 20.4693 18.7964 20.774 19.1011C21.0788 19.4059 21.25 19.8192 21.25 20.2502ZM14.75 20.2502V23.5002C14.75 23.9311 14.5788 24.3445 14.274 24.6492C13.9693 24.954 13.556 25.1252 13.125 25.1252C12.694 25.1252 12.2807 24.954 11.976 24.6492C11.6712 24.3445 11.5 23.9311 11.5 23.5002V20.2502C11.5 19.8192 11.6712 19.4059 11.976 19.1011C12.2807 18.7964 12.694 18.6252 13.125 18.6252C13.556 18.6252 13.9693 18.7964 14.274 19.1011C14.5788 19.4059 14.75 19.8192 14.75 20.2502ZM14.75 31.6252V34.8752C14.75 35.3061 14.5788 35.7195 14.274 36.0242C13.9693 36.329 13.556 36.5002 13.125 36.5002C12.694 36.5002 12.2807 36.329 11.976 36.0242C11.6712 35.7195 11.5 35.3061 11.5 34.8752V31.6252C11.5 31.1942 11.6712 30.7809 11.976 30.4761C12.2807 30.1714 12.694 30.0002 13.125 30.0002C13.556 30.0002 13.9693 30.1714 14.274 30.4761C14.5788 30.7809 14.75 31.1942 14.75 31.6252ZM21.25 31.6252V34.8752C21.25 35.3061 21.0788 35.7195 20.774 36.0242C20.4693 36.329 20.056 36.5002 19.625 36.5002C19.194 36.5002 18.7807 36.329 18.476 36.0242C18.1712 35.7195 18 35.3061 18 34.8752V31.6252C18 31.1942 18.1712 30.7809 18.476 30.4761C18.7807 30.1714 19.194 30.0002 19.625 30.0002C20.056 30.0002 20.4693 30.1714 20.774 30.4761C21.0788 30.7809 21.25 31.1942 21.25 31.6252Z" fill="white"/>
</svg>
