<svg width="47" height="33" viewBox="0 0 47 33" fill="none" xmlns="http://www.w3.org/2000/svg">
<path d="M43.648 11.7225C44.3821 11.5731 45.0421 11.1747 45.5162 10.5947C45.9904 10.0147 46.2496 9.28869 46.25 8.53953V3.5C46.25 2.63805 45.9076 1.8114 45.2981 1.2019C44.6886 0.59241 43.862 0.25 43 0.25H4.00001C3.13805 0.25 2.3114 0.59241 1.70191 1.2019C1.09242 1.8114 0.750006 2.63805 0.750006 3.5V8.53953C0.750417 9.28869 1.00963 10.0147 1.48379 10.5947C1.95794 11.1747 2.61792 11.5731 3.35204 11.7225C4.44974 11.9501 5.43544 12.5491 6.1431 13.4186C6.85076 14.2881 7.23713 15.3749 7.23713 16.4959C7.23713 17.617 6.85076 18.7038 6.1431 19.5733C5.43544 20.4427 4.44974 21.0417 3.35204 21.2694C2.61655 21.419 1.95553 21.8186 1.48121 22.4003C1.0069 22.982 0.748542 23.7099 0.750006 24.4605V29.5C0.750006 30.362 1.09242 31.1886 1.70191 31.7981C2.3114 32.4076 3.13805 32.75 4.00001 32.75H43C43.862 32.75 44.6886 32.4076 45.2981 31.7981C45.9076 31.1886 46.25 30.362 46.25 29.5V24.4605C46.2496 23.7113 45.9904 22.9853 45.5162 22.4053C45.0421 21.8253 44.3821 21.4269 43.648 21.2775C42.5503 21.0499 41.5646 20.4509 40.8569 19.5814C40.1493 18.7119 39.7629 17.6251 39.7629 16.5041C39.7629 15.383 40.1493 14.2962 40.8569 13.4267C41.5646 12.5573 42.5503 11.9583 43.648 11.7306V11.7225ZM4.00001 24.4625C5.83563 24.0886 7.48565 23.0918 8.67074 21.641C9.85582 20.1901 10.5032 18.3743 10.5032 16.501C10.5032 14.6277 9.85582 12.8119 8.67074 11.3611C7.48565 9.91023 5.83563 8.91347 4.00001 8.53953V3.5H15.375V29.5H4.00001V24.4625ZM43 24.4625V29.5H18.625V3.5H43V8.5375C41.1644 8.91144 39.5144 9.9082 38.3293 11.359C37.1442 12.8099 36.4969 14.6257 36.4969 16.499C36.4969 18.3723 37.1442 20.1881 38.3293 21.6389C39.5144 23.0898 41.1644 24.0865 43 24.4605V24.4625Z" fill="white"/>
</svg>
