<svg width="51" height="36" viewBox="0 0 51 36" fill="none" xmlns="http://www.w3.org/2000/svg">
<path d="M23.8255 34.769C23.7377 35.1205 23.5348 35.4326 23.2492 35.6557C22.9636 35.8787 22.6117 35.9999 22.2493 35.9999C22.1124 36.0006 21.9759 35.9842 21.843 35.9512L15.343 34.3262C15.1621 34.2807 14.9903 34.2045 14.8352 34.1007L9.96023 30.8507C9.60171 30.6115 9.3529 30.2397 9.26852 29.817C9.18414 29.3944 9.27112 28.9555 9.51031 28.597C9.7495 28.2385 10.1213 27.9897 10.544 27.9053C10.9666 27.8209 11.4055 27.9079 11.764 28.1471L16.4034 31.2407L22.6312 32.7987C22.8392 32.8491 23.0353 32.9402 23.2081 33.0666C23.3809 33.1931 23.5269 33.3525 23.6379 33.5356C23.7489 33.7186 23.8226 33.9219 23.8548 34.1335C23.887 34.3452 23.8771 34.5612 23.8255 34.769ZM50.7782 15.1755C50.6449 15.5805 50.4326 15.9551 50.1537 16.2776C49.8748 16.6001 49.5347 16.8641 49.1532 17.0545L44.3432 19.4595L33.1551 30.6496C32.9565 30.848 32.7099 30.9915 32.4394 31.0663C32.1689 31.141 31.8836 31.1444 31.6113 31.0762L18.6113 27.8262C18.4136 27.7765 18.2269 27.6904 18.0609 27.5723L6.78336 19.5204L1.85148 17.0545C1.0807 16.6691 0.494489 15.9935 0.221757 15.176C-0.0509746 14.3586 0.0120987 13.4663 0.397108 12.6954L5.44476 2.60211C5.83008 1.83132 6.50574 1.24511 7.32317 0.97238C8.1406 0.699649 9.03289 0.762722 9.80383 1.14773L14.2848 3.38211L25.0504 0.306794C25.3424 0.223256 25.6521 0.223256 25.9441 0.306794L36.7098 3.38211L41.1907 1.14773C41.9616 0.762722 42.8539 0.699649 43.6714 0.97238C44.4888 1.24511 45.1644 1.83132 45.5498 2.60211L50.5974 12.6954C50.7899 13.0763 50.905 13.4917 50.9361 13.9174C50.9671 14.3431 50.9134 14.7707 50.7782 15.1755ZM41.3979 17.804L35.8709 6.74992H29.4074L20.6243 15.2812C23.1959 16.9245 27.2279 17.3774 30.8455 13.7313C31.1281 13.4465 31.506 13.2763 31.9065 13.2535C32.307 13.2306 32.7018 13.3567 33.0149 13.6074L40.0044 19.2076L41.3979 17.804ZM3.30383 14.1477L6.89711 15.9454L11.9448 5.85211L8.35148 4.05445L3.30383 14.1477ZM37.6868 21.509L32.0582 17.0016C28.0891 20.2516 23.0496 20.6802 18.8734 18.0173C18.4625 17.7559 18.1157 17.4057 17.8584 16.9923C17.6012 16.579 17.4401 16.1131 17.387 15.6291C17.334 15.1451 17.3904 14.6554 17.552 14.1961C17.7136 13.7369 17.9764 13.3198 18.3209 12.9757C18.3258 12.9698 18.3312 12.9643 18.3371 12.9595L27.4493 4.12148L25.4993 3.56492L15.2577 6.49195L9.6982 17.609L19.692 24.7488L31.5016 27.7002L37.6868 21.509ZM47.6887 14.1477L42.6471 4.05445L39.0538 5.85211L44.1015 15.9454L47.6887 14.1477Z" fill="white"/>
</svg>
