<svg width="43" height="43" viewBox="0 0 43 43" fill="none" xmlns="http://www.w3.org/2000/svg">
<path d="M21.5 0.375C17.3219 0.375 13.2376 1.61396 9.76359 3.9352C6.2896 6.25645 3.58196 9.55572 1.98305 13.4158C0.384153 17.2759 -0.0341923 21.5234 0.78092 25.6213C1.59603 29.7191 3.60799 33.4832 6.56238 36.4376C9.51676 39.392 13.2809 41.404 17.3787 42.2191C21.4766 43.0342 25.7241 42.6159 29.5842 41.017C33.4443 39.418 36.7436 36.7104 39.0648 33.2364C41.386 29.7624 42.625 25.6781 42.625 21.5C42.6191 15.8991 40.3915 10.5293 36.4311 6.5689C32.4707 2.60848 27.1009 0.380915 21.5 0.375ZM21.5 39.375C17.9647 39.375 14.5087 38.3266 11.5692 36.3625C8.62966 34.3984 6.33858 31.6067 4.98566 28.3405C3.63275 25.0742 3.27876 21.4802 3.96847 18.0128C4.65818 14.5454 6.36061 11.3603 8.86048 8.86047C11.3603 6.3606 14.5454 4.65817 18.0128 3.96846C21.4802 3.27875 25.0742 3.63274 28.3405 4.98565C31.6067 6.33857 34.3984 8.62965 36.3625 11.5692C38.3267 14.5087 39.375 17.9647 39.375 21.5C39.3696 26.2391 37.4846 30.7825 34.1336 34.1336C30.7826 37.4846 26.2391 39.3696 21.5 39.375ZM11.75 17.4375C11.75 16.9554 11.893 16.4841 12.1608 16.0833C12.4286 15.6825 12.8093 15.37 13.2547 15.1855C13.7001 15.0011 14.1902 14.9528 14.663 15.0468C15.1359 15.1409 15.5702 15.373 15.9111 15.7139C16.252 16.0548 16.4841 16.4891 16.5782 16.962C16.6722 17.4348 16.624 17.9249 16.4395 18.3703C16.255 18.8157 15.9426 19.1964 15.5417 19.4642C15.1409 19.732 14.6696 19.875 14.1875 19.875C13.541 19.875 12.9211 19.6182 12.4639 19.1611C12.0068 18.704 11.75 18.084 11.75 17.4375ZM31.25 17.4375C31.25 17.9196 31.107 18.3909 30.8392 18.7917C30.5714 19.1925 30.1907 19.505 29.7453 19.6895C29.2999 19.8739 28.8098 19.9222 28.337 19.8282C27.8641 19.7341 27.4298 19.502 27.0889 19.1611C26.748 18.8202 26.5159 18.3859 26.4218 17.913C26.3278 17.4402 26.3761 16.9501 26.5606 16.5047C26.745 16.0593 27.0575 15.6786 27.4583 15.4108C27.8591 15.143 28.3304 15 28.8125 15C29.459 15 30.079 15.2568 30.5361 15.7139C30.9932 16.171 31.25 16.791 31.25 17.4375ZM31.0327 27.1875C28.9425 30.8011 25.467 32.875 21.5 32.875C17.533 32.875 14.0595 30.8031 11.9694 27.1875C11.8518 27.0025 11.7729 26.7957 11.7373 26.5795C11.7017 26.3632 11.7103 26.142 11.7624 25.9291C11.8145 25.7162 11.9092 25.5161 12.0407 25.3408C12.1722 25.1655 12.3378 25.0185 12.5275 24.9089C12.7173 24.7992 12.9272 24.729 13.1448 24.7026C13.3624 24.6762 13.583 24.694 13.7935 24.7551C14.004 24.8161 14.1999 24.9191 14.3696 25.0579C14.5392 25.1967 14.679 25.3683 14.7806 25.5625C16.298 28.1848 18.6827 29.625 21.5 29.625C24.3174 29.625 26.702 28.1828 28.2174 25.5625C28.4328 25.1892 28.7878 24.9167 29.2042 24.8051C29.6205 24.6935 30.0642 24.7519 30.4375 24.9673C30.8108 25.1828 31.0833 25.5378 31.1949 25.9542C31.3065 26.3705 31.2481 26.8142 31.0327 27.1875Z" fill="white"/>
</svg>
