<svg width="41" height="41" viewBox="0 0 41 41" fill="none" xmlns="http://www.w3.org/2000/svg">
<path d="M33.0284 16.6987L38.8883 11.1291L38.9225 11.0945C40.1294 9.87541 40.8074 8.22192 40.8074 6.49781C40.8074 4.77371 40.1294 3.12022 38.9225 1.90109C37.7155 0.681968 36.0786 -0.00292969 34.3717 -0.00292969C32.6648 -0.00292969 31.0279 0.681968 29.821 1.90109C29.821 1.91328 29.7988 1.92344 29.7868 1.93562L24.2728 7.85469L7.582 1.72031C7.29433 1.61463 6.98278 1.59403 6.68393 1.66096C6.38508 1.72788 6.11133 1.87954 5.89483 2.09812L1.06858 6.97312C0.9004 7.14314 0.771651 7.34871 0.691607 7.57504C0.611562 7.80137 0.582216 8.04281 0.605681 8.28198C0.629147 8.52114 0.704841 8.75207 0.827309 8.95813C0.949777 9.16418 1.11597 9.34023 1.31391 9.47359L14.1618 18.1247L11.1816 21.1248H7.02095C6.59485 21.125 6.18624 21.296 5.88477 21.6002L1.05852 26.4752C0.870302 26.6648 0.731548 26.8986 0.654669 27.1557C0.57779 27.4128 0.565181 27.6851 0.617972 27.9483C0.670762 28.2115 0.787305 28.4574 0.957179 28.6639C1.12705 28.8705 1.34496 29.0313 1.59142 29.132L8.99569 32.1241L11.9518 39.5889L11.9638 39.6214C12.0661 39.8714 12.2286 40.0917 12.4365 40.2623C12.6444 40.4329 12.8911 40.5483 13.1544 40.5981C13.4176 40.648 13.689 40.6306 13.944 40.5477C14.1989 40.4647 14.4293 40.3188 14.6143 40.1231L19.4144 35.2725C19.5646 35.1222 19.684 34.9435 19.7657 34.7466C19.8475 34.5497 19.8901 34.3384 19.891 34.1248V29.9222L22.8591 26.9241L31.4237 39.9017C31.5557 40.1017 31.73 40.2695 31.934 40.3932C32.138 40.5169 32.3666 40.5934 32.6034 40.6171C32.8402 40.6408 33.0792 40.6112 33.3032 40.5303C33.5273 40.4495 33.7308 40.3194 33.8991 40.1495L38.7254 35.2745C38.9418 35.0558 39.0919 34.7793 39.1582 34.4775C39.2244 34.1756 39.2041 33.8609 39.0994 33.5703L33.0284 16.6987ZM33.0143 36.4486L24.4497 23.473C24.3185 23.2715 24.1444 23.1021 23.9402 22.977C23.7361 22.8519 23.5069 22.7743 23.2693 22.7498C23.215 22.7498 23.1627 22.7498 23.1105 22.7498C22.899 22.7499 22.6896 22.7922 22.4943 22.8741C22.299 22.956 22.1216 23.076 21.9723 23.2272L17.146 28.1022C16.8442 28.4064 16.6742 28.8191 16.6735 29.2498V33.4525L14.0452 36.1073L11.7326 30.2655C11.6517 30.0627 11.5311 29.8784 11.378 29.7238C11.2249 29.5692 11.0425 29.4474 10.8417 29.3656L5.0623 27.0297L7.68858 24.3748H11.8472C12.0585 24.375 12.2678 24.3331 12.4631 24.2516C12.6584 24.17 12.8359 24.0504 12.9854 23.8995L17.8116 19.0245C17.9802 18.8545 18.1093 18.6488 18.1895 18.4223C18.2698 18.1957 18.2992 17.954 18.2758 17.7146C18.2523 17.4752 18.1765 17.244 18.0538 17.0377C17.9311 16.8315 17.7646 16.6554 17.5663 16.522L4.72044 7.86891L7.43521 5.12875L24.1702 11.2753C24.4651 11.3847 24.7852 11.4046 25.0911 11.3324C25.397 11.2602 25.6753 11.0991 25.8916 10.8691L32.1134 4.18422C32.7199 3.58956 33.5336 3.25982 34.3788 3.26625C35.2239 3.27267 36.0327 3.61476 36.6302 4.21857C37.2277 4.82238 37.566 5.63942 37.572 6.49312C37.578 7.34683 37.2511 8.16863 36.6622 8.78094L30.0522 15.0636C29.8244 15.2821 29.665 15.5632 29.5935 15.8722C29.522 16.1812 29.5417 16.5045 29.65 16.8023L35.7351 33.7064L33.0143 36.4486Z" fill="white"/>
</svg>
