<svg width="47" height="47" viewBox="0 0 47 47" fill="none" xmlns="http://www.w3.org/2000/svg">
<path d="M43.3778 18.3853C42.612 17.585 41.8198 16.7603 41.5213 16.0352C41.245 15.3709 41.2287 14.27 41.2125 13.2036C41.182 11.2211 41.1495 8.97453 39.5875 7.4125C38.0255 5.85047 35.7789 5.81797 33.7964 5.7875C32.73 5.77125 31.6291 5.755 30.9648 5.47875C30.2417 5.18016 29.415 4.38797 28.6147 3.62219C27.2131 2.27547 25.6206 0.75 23.5 0.75C21.3794 0.75 19.7889 2.27547 18.3853 3.62219C17.585 4.38797 16.7603 5.18016 16.0352 5.47875C15.375 5.755 14.27 5.77125 13.2036 5.7875C11.2211 5.81797 8.97453 5.85047 7.4125 7.4125C5.85047 8.97453 5.82812 11.2211 5.7875 13.2036C5.77125 14.27 5.755 15.3709 5.47875 16.0352C5.18016 16.7583 4.38797 17.585 3.62219 18.3853C2.27547 19.7869 0.75 21.3794 0.75 23.5C0.75 25.6206 2.27547 27.2111 3.62219 28.6147C4.38797 29.415 5.18016 30.2397 5.47875 30.9648C5.755 31.6291 5.77125 32.73 5.7875 33.7964C5.81797 35.7789 5.85047 38.0255 7.4125 39.5875C8.97453 41.1495 11.2211 41.182 13.2036 41.2125C14.27 41.2287 15.3709 41.245 16.0352 41.5213C16.7583 41.8198 17.585 42.612 18.3853 43.3778C19.7869 44.7245 21.3794 46.25 23.5 46.25C25.6206 46.25 27.2111 44.7245 28.6147 43.3778C29.415 42.612 30.2397 41.8198 30.9648 41.5213C31.6291 41.245 32.73 41.2287 33.7964 41.2125C35.7789 41.182 38.0255 41.1495 39.5875 39.5875C41.1495 38.0255 41.182 35.7789 41.2125 33.7964C41.2287 32.73 41.245 31.6291 41.5213 30.9648C41.8198 30.2417 42.612 29.415 43.3778 28.6147C44.7245 27.2131 46.25 25.6206 46.25 23.5C46.25 21.3794 44.7245 19.7889 43.3778 18.3853ZM41.0317 26.3661C40.0588 27.3817 39.0512 28.4319 38.517 29.7217C38.0052 30.9608 37.9828 32.3766 37.9625 33.7477C37.9422 35.1695 37.9198 36.6584 37.2881 37.2881C36.6564 37.9178 35.1777 37.9422 33.7477 37.9625C32.3766 37.9828 30.9608 38.0052 29.7217 38.517C28.4319 39.0512 27.3817 40.0588 26.3661 41.0317C25.3505 42.0047 24.3125 43 23.5 43C22.6875 43 21.6414 42.0006 20.6339 41.0317C19.6264 40.0628 18.5681 39.0512 17.2783 38.517C16.0392 38.0052 14.6234 37.9828 13.2523 37.9625C11.8305 37.9422 10.3416 37.9198 9.71187 37.2881C9.08219 36.6564 9.05781 35.1777 9.0375 33.7477C9.01719 32.3766 8.99484 30.9608 8.48297 29.7217C7.94875 28.4319 6.94125 27.3817 5.96828 26.3661C4.99531 25.3505 4 24.3125 4 23.5C4 22.6875 4.99937 21.6414 5.96828 20.6339C6.93719 19.6264 7.94875 18.5681 8.48297 17.2783C8.99484 16.0392 9.01719 14.6234 9.0375 13.2523C9.05781 11.8305 9.08016 10.3416 9.71187 9.71187C10.3436 9.08219 11.8223 9.05781 13.2523 9.0375C14.6234 9.01719 16.0392 8.99484 17.2783 8.48297C18.5681 7.94875 19.6183 6.94125 20.6339 5.96828C21.6495 4.99531 22.6875 4 23.5 4C24.3125 4 25.3586 4.99937 26.3661 5.96828C27.3736 6.93719 28.4319 7.94875 29.7217 8.48297C30.9608 8.99484 32.3766 9.01719 33.7477 9.0375C35.1695 9.05781 36.6584 9.08016 37.2881 9.71187C37.9178 10.3436 37.9422 11.8223 37.9625 13.2523C37.9828 14.6234 38.0052 16.0392 38.517 17.2783C39.0512 18.5681 40.0588 19.6183 41.0317 20.6339C42.0047 21.6495 43 22.6875 43 23.5C43 24.3125 42.0006 25.3586 41.0317 26.3661ZM32.7747 17.4753C32.9258 17.6262 33.0456 17.8055 33.1274 18.0027C33.2092 18.2 33.2513 18.4114 33.2513 18.625C33.2513 18.8386 33.2092 19.05 33.1274 19.2473C33.0456 19.4445 32.9258 19.6238 32.7747 19.7747L21.3997 31.1497C21.2488 31.3008 21.0695 31.4206 20.8723 31.5024C20.675 31.5842 20.4636 31.6263 20.25 31.6263C20.0364 31.6263 19.825 31.5842 19.6277 31.5024C19.4305 31.4206 19.2512 31.3008 19.1003 31.1497L14.2253 26.2747C13.9204 25.9698 13.7491 25.5562 13.7491 25.125C13.7491 24.6938 13.9204 24.2802 14.2253 23.9753C14.5302 23.6704 14.9438 23.4991 15.375 23.4991C15.8062 23.4991 16.2198 23.6704 16.5247 23.9753L20.25 27.7027L30.4753 17.4753C30.6262 17.3242 30.8055 17.2044 31.0027 17.1226C31.2 17.0408 31.4114 16.9987 31.625 16.9987C31.8386 16.9987 32.05 17.0408 32.2473 17.1226C32.4445 17.2044 32.6238 17.3242 32.7747 17.4753Z" fill="white"/>
</svg>
