<svg width="29" height="33" viewBox="0 0 29 33" fill="none" xmlns="http://www.w3.org/2000/svg">
<g clip-path="url(#clip0_2311_410)">
<path d="M21.2688 11.7057C23.3627 13.2017 25.9279 14.0819 28.6983 14.0819V8.75366C28.1739 8.75386 27.651 8.69916 27.138 8.59044V12.7846C24.3678 12.7846 21.803 11.9044 19.7087 10.4085V21.2821C19.7087 26.7217 15.2968 31.131 9.85481 31.131C7.82428 31.131 5.93691 30.5174 4.36914 29.4651C6.15854 31.2938 8.65396 32.4282 11.4146 32.4282C16.857 32.4282 21.2691 28.019 21.2691 22.5792V11.7057H21.2688ZM23.1937 6.3301C22.1235 5.16164 21.4209 3.65161 21.2688 1.98216V1.29688H19.7903C20.1625 3.41866 21.4321 5.23137 23.1937 6.3301ZM7.81116 25.291C7.21325 24.5076 6.89006 23.5491 6.89158 22.5636C6.89158 20.0758 8.90955 18.0586 11.3993 18.0586C11.8632 18.0583 12.3244 18.1295 12.7666 18.2697V12.8222C12.2498 12.7515 11.7283 12.7213 11.207 12.7324V16.9724C10.7645 16.8322 10.3031 16.7611 9.839 16.7614C7.34941 16.7614 5.33155 18.7784 5.33155 21.2665C5.33155 23.0259 6.34014 24.549 7.81116 25.291Z" fill="#FF004F"/>
<path d="M19.7085 10.4084C21.803 11.9043 24.3675 12.7845 27.1378 12.7845V8.59032C25.5915 8.26108 24.2226 7.45348 23.1934 6.3301C21.4317 5.23126 20.1623 3.41855 19.7901 1.29688H15.9065V22.5789C15.8977 25.06 13.8832 27.0689 11.3989 27.0689C9.93501 27.0689 8.63439 26.3715 7.81076 25.2909C6.33996 24.549 5.33126 23.0258 5.33126 21.2666C5.33126 18.7787 7.34912 16.7615 9.83871 16.7615C10.3157 16.7615 10.7754 16.8358 11.2067 16.9725V12.7325C5.86027 12.843 1.56055 17.2092 1.56055 22.579C1.56055 25.2597 2.63125 27.6897 4.36907 29.4653C5.93684 30.5174 7.8241 31.1312 9.85474 31.1312C15.2968 31.1312 19.7086 26.7216 19.7086 21.2821L19.7085 10.4084Z" fill="black"/>
<path d="M27.1374 8.59049V7.45667C25.743 7.45869 24.3761 7.06839 23.193 6.33037C24.2402 7.47631 25.6193 8.26654 27.1374 8.59071M19.7896 1.29704C19.7542 1.09431 19.7269 0.890223 19.708 0.685288V0H14.3457V21.2823C14.3371 23.7631 12.3226 25.772 9.8382 25.772C9.13388 25.7731 8.43919 25.6084 7.81025 25.2914C8.63387 26.3718 9.9345 27.0691 11.3983 27.0691C13.8826 27.0691 15.8973 25.0604 15.906 22.5793V1.29715L19.7896 1.29704ZM11.2065 12.7327V11.5255C10.7584 11.4643 10.3067 11.4337 9.85445 11.4338C4.41183 11.4338 0 15.8432 0 21.2823C0 24.6924 1.7339 27.6976 4.36878 29.4654C2.63096 27.6899 1.56026 25.2597 1.56026 22.5792C1.56026 17.2094 5.85987 12.8431 11.2065 12.7327Z" fill="#00F2EA"/>
</g>
<defs>
<clipPath id="clip0_2311_410">
<rect width="28.6985" height="32.51" fill="white"/>
</clipPath>
</defs>
</svg>
