<svg width="33" height="33" viewBox="0 0 33 33" fill="none" xmlns="http://www.w3.org/2000/svg">
<path d="M25.0155 0.0898438H7.74453C3.53638 0.0898438 0.125 3.50122 0.125 7.70937V24.9803C0.125 29.1885 3.53638 32.5998 7.74453 32.5998H25.0155C29.2236 32.5998 32.635 29.1885 32.635 24.9803V7.70937C32.635 3.50122 29.2236 0.0898438 25.0155 0.0898438Z" fill="white"/>
<path d="M25.0155 0.0898438H7.74453C3.53638 0.0898438 0.125 3.50122 0.125 7.70937V24.9803C0.125 29.1885 3.53638 32.5998 7.74453 32.5998H25.0155C29.2236 32.5998 32.635 29.1885 32.635 24.9803V7.70937C32.635 3.50122 29.2236 0.0898438 25.0155 0.0898438Z" fill="#1D9BF0"/>
<path d="M25.4696 11.6981C25.4835 11.8997 25.4835 12.1012 25.4835 12.3046C25.4835 18.5015 20.766 25.6483 12.1398 25.6483V25.6445C9.59149 25.6482 7.09595 24.9184 4.95117 23.5422C5.32174 23.5868 5.69408 23.609 6.06743 23.6099C8.17956 23.6115 10.2309 22.9031 11.8919 21.5984C10.9133 21.58 9.96491 21.2561 9.17935 20.6722C8.3938 20.0883 7.81034 19.2735 7.51057 18.3417C8.21319 18.4772 8.93753 18.4496 9.62779 18.261C7.43996 17.8189 5.8659 15.8966 5.8659 13.6641V13.6047C6.51812 13.9679 7.24805 14.1692 7.99429 14.1916C5.93371 12.8144 5.2985 10.073 6.54277 7.92963C7.72015 9.37848 9.18915 10.5635 10.8543 11.4076C12.5195 12.2517 14.3437 12.7361 16.2083 12.8292C16.0224 12.029 16.0498 11.1939 16.2879 10.4076C16.526 9.62133 16.9663 8.9113 17.5649 8.34858C19.4538 6.57298 22.4245 6.66403 24.2001 8.55189C25.2504 8.34454 26.2575 7.95953 27.1782 7.41341C26.8281 8.49927 26.0955 9.42099 25.1166 10.0071C26.0463 9.89757 26.9542 9.64871 27.8098 9.26889C27.1804 10.2114 26.3879 11.034 25.4696 11.6981Z" fill="white"/>
</svg>
