<svg width="76" height="88" viewBox="0 0 76 88" fill="none" xmlns="http://www.w3.org/2000/svg">
<path d="M43.9994 62.7499C50.18 62.7499 56.2219 60.9171 61.3609 57.4833C66.5 54.0496 70.5054 49.169 72.8706 43.4588C75.2358 37.7486 75.8547 31.4653 74.6489 25.4034C73.4431 19.3414 70.4668 13.7732 66.0965 9.40284C61.7261 5.03245 56.1578 2.05617 50.0959 0.850384C44.034 -0.355404 37.7507 0.26345 32.0405 2.62869C26.3303 4.99393 21.4497 8.99932 18.0159 14.1384C14.5822 19.2774 12.7494 25.3193 12.7494 31.4999C12.7587 39.7851 16.0541 47.7282 21.9126 53.5867C27.7711 59.4452 35.7142 62.7406 43.9994 62.7499ZM43.9994 6.49992C48.9439 6.49992 53.7774 7.96615 57.8886 10.7132C61.9999 13.4602 65.2042 17.3647 67.0964 21.9328C68.9885 26.501 69.4836 31.5277 68.519 36.3772C67.5544 41.2267 65.1734 45.6813 61.677 49.1776C58.1807 52.6739 53.7262 55.0549 48.8766 56.0196C44.0271 56.9842 39.0004 56.4891 34.4323 54.5969C29.8641 52.7047 25.9597 49.5004 23.2126 45.3892C20.4656 41.2779 18.9994 36.4445 18.9994 31.4999C19.0066 24.8717 21.6429 18.5171 26.3297 13.8302C31.0165 9.14341 37.3712 6.50716 43.9994 6.49992ZM74.3783 58.6484C74.663 58.9445 74.8866 59.2938 75.0362 59.6763C75.1858 60.0589 75.2585 60.4672 75.2501 60.8779C75.2418 61.2886 75.1526 61.6936 74.9875 62.0698C74.8225 62.446 74.585 62.786 74.2884 63.0702C66.9342 70.1619 57.3165 74.4355 47.1244 75.1405V81.4999H56.4994C57.3282 81.4999 58.123 81.8292 58.7091 82.4152C59.2951 83.0013 59.6244 83.7961 59.6244 84.6249C59.6244 85.4537 59.2951 86.2486 58.7091 86.8346C58.123 87.4207 57.3282 87.7499 56.4994 87.7499H31.4994C30.6706 87.7499 29.8757 87.4207 29.2897 86.8346C28.7036 86.2486 28.3744 85.4537 28.3744 84.6249C28.3744 83.7961 28.7036 83.0013 29.2897 82.4152C29.8757 81.8292 30.6706 81.4999 31.4994 81.4999H40.8744V75.1367C32.5861 74.543 24.6383 71.6012 17.9608 66.6556C11.2834 61.7099 6.15249 54.9649 3.16842 47.2097C0.18436 39.4545 -0.529433 31.0099 1.11056 22.8638C2.75055 14.7177 6.6765 7.20718 12.4291 1.21086C12.7114 0.907455 13.0513 0.663252 13.429 0.492467C13.8066 0.321683 14.2145 0.22773 14.6288 0.216079C15.0431 0.204428 15.4556 0.27531 15.8423 0.424601C16.2289 0.573891 16.582 0.798607 16.881 1.08566C17.1799 1.37272 17.4188 1.71639 17.5837 2.09665C17.7486 2.47691 17.8362 2.88618 17.8414 3.30062C17.8466 3.71506 17.7693 4.1264 17.614 4.51068C17.4587 4.89496 17.2285 5.24452 16.9369 5.53899C10.1247 12.615 6.36073 22.0814 6.45404 31.9032C6.54734 41.725 10.4905 51.1181 17.4358 58.0635C24.3812 65.0088 33.7743 68.952 43.5961 69.0453C53.4179 69.1386 62.8842 65.3746 69.9603 58.5624C70.5576 57.9881 71.3586 57.6745 72.1871 57.6906C73.0156 57.7067 73.8038 58.0512 74.3783 58.6484Z" fill="#00BF63"/>
</svg>
