<svg width="88" height="64" viewBox="0 0 88 64" fill="none" xmlns="http://www.w3.org/2000/svg">
<path d="M82.7461 22.8125C84.1579 22.5253 85.4271 21.7591 86.3389 20.6437C87.2507 19.5283 87.7492 18.1321 87.75 16.6914V7C87.75 5.3424 87.0915 3.75268 85.9194 2.58058C84.7473 1.40848 83.1576 0.75 81.5 0.75H6.50001C4.84241 0.75 3.2527 1.40848 2.08059 2.58058C0.908492 3.75268 0.250012 5.3424 0.250012 7V16.6914C0.250802 18.1321 0.749291 19.5283 1.66113 20.6437C2.57296 21.7591 3.84215 22.5253 5.25392 22.8125C7.36488 23.2503 9.26046 24.4022 10.6213 26.0743C11.9822 27.7463 12.7252 29.8363 12.7252 31.9922C12.7252 34.1481 11.9822 36.2381 10.6213 37.9101C9.26046 39.5822 7.36488 40.7341 5.25392 41.1719C3.83952 41.4596 2.56832 42.2281 1.65618 43.3467C0.744041 44.4654 0.247195 45.8652 0.250012 47.3086V57C0.250012 58.6576 0.908492 60.2473 2.08059 61.4194C3.2527 62.5915 4.84241 63.25 6.50001 63.25H81.5C83.1576 63.25 84.7473 62.5915 85.9194 61.4194C87.0915 60.2473 87.75 58.6576 87.75 57V47.3086C87.7492 45.8679 87.2507 44.4717 86.3389 43.3563C85.4271 42.2409 84.1579 41.4747 82.7461 41.1875C80.6351 40.7497 78.7396 39.5978 77.3787 37.9257C76.0178 36.2537 75.2748 34.1637 75.2748 32.0078C75.2748 29.8519 76.0178 27.7619 77.3787 26.0899C78.7396 24.4178 80.6351 23.2659 82.7461 22.8281V22.8125ZM6.50001 47.3125C10.0301 46.5934 13.2032 44.6765 15.4822 41.8865C17.7612 39.0964 19.0061 35.6045 19.0061 32.002C19.0061 28.3994 17.7612 24.9075 15.4822 22.1174C13.2032 19.3274 10.0301 17.4105 6.50001 16.6914V7H28.375V57H6.50001V47.3125ZM81.5 47.3125V57H34.625V7H81.5V16.6875C77.97 17.4066 74.7968 19.3235 72.5178 22.1135C70.2388 24.9036 68.9939 28.3955 68.9939 31.998C68.9939 35.6006 70.2388 39.0925 72.5178 41.8826C74.7968 44.6726 77.97 46.5895 81.5 47.3086V47.3125Z" fill="#00BF63"/>
</svg>
