<svg width="63" height="64" viewBox="0 0 78 79" fill="none" xmlns="http://www.w3.org/2000/svg">
<path d="M62.6706 32.6137L73.9396 21.9028L74.0053 21.8364C76.3264 19.4919 77.6303 16.3121 77.6303 12.9965C77.6303 9.68096 76.3264 6.50117 74.0053 4.1567C71.6843 1.81223 68.5363 0.495117 65.2539 0.495117C61.9715 0.495117 58.8235 1.81223 56.5025 4.1567C56.5025 4.18014 56.4599 4.19967 56.4367 4.22311L45.8329 15.6059L13.7352 3.80904C13.182 3.6058 12.5829 3.5662 12.0082 3.6949C11.4334 3.8236 10.907 4.11525 10.4907 4.53561L1.2094 13.9106C0.885986 14.2376 0.638391 14.6329 0.48446 15.0681C0.330528 15.5034 0.274092 15.9677 0.319219 16.4276C0.364345 16.8876 0.50991 17.3317 0.745425 17.7279C0.980941 18.1242 1.30054 18.4627 1.6812 18.7192L26.3887 35.3559L20.6575 41.1255H12.6563C11.8369 41.1258 11.0511 41.4546 10.4713 42.0395L1.19007 51.4145C0.828106 51.7792 0.561271 52.2289 0.413426 52.7233C0.265581 53.2176 0.241334 53.7413 0.342854 54.2474C0.444374 54.7536 0.668495 55.2264 0.995176 55.6237C1.32186 56.021 1.74091 56.3302 2.21487 56.5239L16.4539 62.2778L22.1386 76.6333L22.1618 76.6958C22.3585 77.1766 22.6709 77.6003 23.0707 77.9283C23.4705 78.2563 23.9451 78.4783 24.4513 78.5741C24.9576 78.6699 25.4795 78.6366 25.9698 78.4771C26.46 78.3175 26.9031 78.0369 27.2588 77.6606L36.4898 68.3325C36.7786 68.0435 37.0082 67.6998 37.1655 67.3211C37.3227 66.9424 37.4046 66.5361 37.4063 66.1255V58.0434L43.1142 52.2778L59.5846 77.2348C59.8385 77.6193 60.1737 77.9422 60.566 78.1801C60.9583 78.418 61.3979 78.565 61.8533 78.6106C62.3086 78.6562 62.7683 78.5991 63.1992 78.4437C63.63 78.2882 64.0214 78.0381 64.3451 77.7114L73.6264 68.3364C74.0425 67.9158 74.3312 67.3841 74.4587 66.8036C74.5861 66.223 74.5469 65.6179 74.3457 65.059L62.6706 32.6137ZM62.6435 70.5942L46.1732 45.6411C45.9207 45.2536 45.586 44.9278 45.1934 44.6873C44.8007 44.4468 44.36 44.2975 43.9032 44.2505C43.7987 44.2505 43.6982 44.2505 43.5976 44.2505C43.191 44.2506 42.7883 44.3318 42.4128 44.4893C42.0372 44.6468 41.696 44.8776 41.4088 45.1684L32.1276 54.5434C31.5471 55.1284 31.2202 55.9222 31.2188 56.7505V64.8325L26.1644 69.938L21.7171 58.7036C21.5615 58.3135 21.3296 57.9592 21.0352 57.6619C20.7408 57.3646 20.3901 57.1303 20.0039 56.9731L8.88964 52.4809L13.9402 47.3755H21.9375C22.3439 47.3758 22.7464 47.2952 23.122 47.1384C23.4975 46.9815 23.8388 46.7515 24.1264 46.4614L33.4076 37.0864C33.7317 36.7594 33.9799 36.3638 34.1343 35.9282C34.2886 35.4925 34.3453 35.0277 34.3001 34.5673C34.255 34.1068 34.1092 33.6622 33.8733 33.2656C33.6373 32.869 33.3171 32.5303 32.9358 32.2739L8.23222 15.6333L13.4529 10.3637L45.6357 22.184C46.2027 22.3945 46.8183 22.4327 47.4066 22.2938C47.9948 22.155 48.53 21.8453 48.946 21.4028L60.911 8.54733C62.0773 7.40376 63.6421 6.76964 65.2675 6.782C66.8928 6.79436 68.448 7.45221 69.5971 8.61338C70.7461 9.77455 71.3967 11.3458 71.4082 12.9875C71.4197 14.6293 70.7913 16.2097 69.6586 17.3872L56.9472 29.4692C56.5091 29.8894 56.2025 30.43 56.065 31.0242C55.9276 31.6184 55.9654 32.2402 56.1737 32.813L67.8758 65.3208L62.6435 70.5942Z" fill="#00BF63"/>
</svg>
